# xmcd CD database file
#
# Track frame offsets:
#	150
#	19778
#	35193
#	56198
#	74525
#	93873
#	110940
#	122978
#	143083
#
# Disc length: 2181 seconds
#
# Revision: 0
# Processed by: cddbd v1.5.1PL2 Copyright (c) Steve Scherf et al.
# Submitted via: CDex 1.51
#
DISCID=8b088309
DTITLE=Cuco y Valoy - La gran obra musical
DYEAR=1900
DGENRE=Salsa
TTITLE0=Desilusiòn
TTITLE1=Amarga condena
TTITLE2=Mujer boriquena
TTITLE3=No me quieras màs
TTITLE4=El don de las mujeres
TTITLE5=Tego un carinito!
TTITLE6=Acéchala Ramòn
TTITLE7=Mami, dame lo mìo
TTITLE8=Linda Colombia
EXTD=
EXTT0=
EXTT1=
EXTT2=
EXTT3=
EXTT4=
EXTT5=
EXTT6=
EXTT7=
EXTT8=
PLAYORDER=
